<?xml version="1.0" encoding="utf-8"?>
<!-- Generator: Adobe Illustrator 16.0.0, SVG Export Plug-In . SVG Version: 6.00 Build 0)  -->
<!DOCTYPE svg PUBLIC "-//W3C//DTD SVG 1.1//EN" "http://www.w3.org/Graphics/SVG/1.1/DTD/svg11.dtd">
<svg version="1.1" id="Capa_1" xmlns="http://www.w3.org/2000/svg" xmlns:xlink="http://www.w3.org/1999/xlink" x="0px" y="0px"
	 width="650px" height="500px" viewBox="75 0 650 500" enable-background="new 75 0 650 500" xml:space="preserve">
<rect x="-195.4" y="-119" fill="#74ACDF" width="1188.801" height="743"/>
<rect x="-195.4" y="128.671" fill="#FFFFFF" width="1188.801" height="247.671"/>
<g id="rays">
	<path id="ray1" fill="#F6B40E" stroke="#85340A" stroke-width="1.1116" d="M394.304,254.446l42.283,92.122
		c0,0,0.726,1.76,1.902,1.274c1.174-0.485,0.444-2.245,0.444-2.245l-35.24-95.039 M402.683,286.4
		c-0.518,14.01,8.103,21.716,6.976,34.227c-1.125,12.512,5.745,19.585,7.338,24.449c1.599,4.865-1.724,7.777-0.292,8.469
		s4.563-3.152,3.541-10.071c-1.02-6.915-6.272-8.969-5.036-24.249c1.232-15.281-6.252-18.839-4.429-32.777"/>
	<g transform="rotate(22.5 400,250)">
		<path id="ray1_1_" fill="#F6B40E" stroke="#85340A" stroke-width="1.1116" d="M393.917,252.501l3.812,101.288
			c0,0-0.002,1.905,1.269,1.907c1.271,0.001,1.271-1.906,1.271-1.906l3.811-101.289 M389.429,285.229
			c-5.837,12.745-0.825,23.161-6.653,34.288c-5.828,11.131-2.185,20.293-2.575,25.399c-0.39,5.105-4.568,6.522-3.513,7.711
			c1.058,1.188,5.42-1.166,7.125-7.946c1.704-6.783-2.361-10.688,4.627-24.335c6.987-13.645,1.436-19.796,8.453-31.977"/>
	</g>
	<g transform="rotate(45 400,250)">
		<path id="ray1_2_" fill="#F6B40E" stroke="#85340A" stroke-width="1.1116" d="M394.303,250.557l-35.241,95.036
			c0,0-0.731,1.759,0.444,2.247c1.173,0.487,1.902-1.274,1.902-1.274l42.285-92.122 M377.632,279.074
			c-10.271,9.542-9.625,21.084-19.268,29.133c-9.644,8.054-9.786,17.913-12.1,22.48c-2.313,4.568-6.716,4.278-6.195,5.778
			c0.523,1.502,5.454,0.999,9.624-4.614c4.169-5.614,1.908-10.778,13.587-20.709c11.676-9.934,8.902-17.743,20.046-26.311"/>
	</g>
	<g transform="rotate(67.5 400,250)">
		<path id="ray1_3_" fill="#F6B40E" stroke="#85340A" stroke-width="1.1116" d="M395.405,248.906l-68.927,74.315
			c0,0-1.349,1.347-0.452,2.246c0.898,0.9,2.246-0.448,2.246-0.448l74.317-68.928 M369.089,268.875
			c-13.141,4.885-16.962,15.796-28.951,19.541c-11.99,3.75-15.896,12.805-19.78,16.139c-3.885,3.337-7.843,1.384-7.935,2.97
			c-0.093,1.588,4.657,3.007,10.657-0.583c6-3.589,5.888-9.226,20.478-13.933c14.59-4.709,15.014-12.984,28.588-16.636"/>
	</g>
	<path id="ray2" fill="#85340A" d="M405.405,288.775c0.673,13.454,8.301,19.409,6.803,31.672c3.289-9.696-4.641-17.214-4.191-31.533
		 M396.652,253.61l28.958,63.271l-24.265-65.217"/>
	<g transform="rotate(22.5 400,250)">
		<path id="ray2_1_" fill="#85340A" d="M391.035,288.463c-4.525,12.688,0.242,21.111-5.834,31.865
			c6.749-7.699,2.299-17.68,8.196-30.736 M396.406,252.625l2.54,69.536l2.54-69.539"/>
	</g>
	<g transform="rotate(45 400,250)">
		<path id="ray2_2_" fill="#85340A" d="M377.879,282.678c-9.037,9.99-7.855,19.596-17.584,27.207
			c9.183-4.529,8.889-15.453,19.334-25.26 M396.555,251.625l-24.262,65.214l28.958-63.273"/>
	</g>
	<g transform="rotate(67.5 400,250)">
		<path id="ray2_3_" fill="#85340A" d="M367.939,272.298c-12.173,5.771-14.756,15.098-26.658,18.408
			c10.217-0.674,14.126-10.877,27.529-15.939 M397.076,250.756l-47.371,50.966l50.966-47.376"/>
	</g>
</g>
<g>
	<g id="rays_1_">
		<path id="ray1_4_" fill="#F6B40E" stroke="#85340A" stroke-width="1.1116" d="M397.053,247.804l-92.12,42.283
			c0,0-1.761,0.726-1.276,1.902c0.485,1.174,2.246,0.442,2.246,0.442l95.037-35.239 M365.1,256.182
			c-14.01-0.517-21.715,8.103-34.226,6.977c-12.512-1.125-19.586,5.745-24.451,7.338c-4.866,1.598-7.775-1.724-8.467-0.293
			c-0.693,1.433,3.15,4.563,10.068,3.542c6.917-1.02,8.971-6.272,24.251-5.036c15.28,1.232,18.839-6.251,32.778-4.431"/>
		<g transform="rotate(22.5 400,250)">
			<path id="ray1_5_" fill="#F6B40E" stroke="#85340A" stroke-width="1.1116" d="M398.999,247.416l-101.29,3.812
				c0,0-1.904-0.002-1.906,1.27c-0.001,1.271,1.905,1.271,1.905,1.271l101.291,3.809 M366.271,242.928
				c-12.745-5.836-23.162-0.823-34.29-6.651c-11.129-5.828-20.293-2.186-25.398-2.576c-5.106-0.389-6.524-4.568-7.711-3.512
				c-1.187,1.058,1.166,5.421,7.947,7.126c6.781,1.703,10.688-2.362,24.333,4.626c13.646,6.987,19.798,1.435,31.979,8.453"/>
		</g>
		<g transform="rotate(45 400,250)">
			<path id="ray1_6_" fill="#F6B40E" stroke="#85340A" stroke-width="1.1116" d="M400.943,247.803l-95.037-35.24
				c0,0-1.76-0.731-2.247,0.442c-0.487,1.175,1.274,1.902,1.274,1.902l92.122,42.285 M372.425,231.132
				c-9.542-10.271-21.084-9.624-29.134-19.268c-8.052-9.644-17.913-9.786-22.479-12.101c-4.568-2.313-4.279-6.716-5.78-6.194
				c-1.501,0.522-0.997,5.453,4.616,9.624c5.613,4.169,10.778,1.909,20.71,13.586c9.933,11.678,17.742,8.902,26.309,20.047"/>
		</g>
		<g transform="rotate(67.5 400,250)">
			<path id="ray1_7_" fill="#F6B40E" stroke="#85340A" stroke-width="1.1116" d="M402.593,248.905l-74.316-68.927
				c0,0-1.347-1.35-2.246-0.451c-0.899,0.898,0.45,2.245,0.45,2.245l68.927,74.318 M382.625,222.589
				c-4.885-13.141-15.794-16.962-19.542-28.951c-3.749-11.99-12.804-15.896-16.138-19.779c-3.334-3.886-1.382-7.844-2.969-7.937
				c-1.586-0.092-3.008,4.658,0.582,10.657c3.59,6,9.228,5.889,13.935,20.479c4.708,14.59,12.983,15.013,16.635,28.588"/>
		</g>
		<path id="ray2_4_" fill="#85340A" d="M362.726,258.905c-13.453,0.673-19.411,8.302-31.672,6.804
			c9.697,3.289,17.213-4.641,31.534-4.191 M397.89,250.152l-63.27,28.957l65.215-24.264"/>
		<g transform="rotate(22.5 400,250)">
			<path id="ray2_5_" fill="#85340A" d="M363.037,244.535c-12.688-4.525-21.111,0.242-31.865-5.834
				c7.699,6.749,17.678,2.299,30.736,8.196 M398.873,249.906l-69.535,2.541l69.537,2.539"/>
		</g>
		<g transform="rotate(45 400,250)">
			<path id="ray2_6_" fill="#85340A" d="M368.822,231.379c-9.99-9.038-19.597-7.856-27.208-17.585
				c4.531,9.182,15.454,8.89,25.261,19.334 M399.875,250.055l-65.214-24.262l63.272,28.957"/>
		</g>
		<g transform="rotate(90 400,250)">
			<path id="ray2_7_" fill="#85340A" d="M379.201,221.44c-5.771-12.173-15.098-14.757-18.406-26.659
				c0.671,10.217,10.875,14.127,15.938,27.529 M400.744,250.574l-50.965-47.37l47.375,50.966"/>
		</g>
	</g>
	<g>
		<g id="rays_2_">
			<path id="ray1_8_" fill="#F6B40E" stroke="#85340A" stroke-width="1.1116" d="M403.696,250.553l-42.284-92.121
				c0,0-0.728-1.76-1.902-1.275c-1.174,0.487-0.444,2.247-0.444,2.247l35.241,95.039 M395.317,218.599
				c0.515-14.01-8.102-21.715-6.975-34.225c1.124-12.513-5.748-19.586-7.341-24.45c-1.594-4.866,1.724-7.775,0.295-8.467
				c-1.432-0.694-4.563,3.15-3.542,10.068c1.02,6.916,6.271,8.969,5.037,24.25c-1.233,15.281,6.25,18.841,4.428,32.78"/>
			<g transform="rotate(22.5 400,250)">
				<path id="ray1_9_" fill="#F6B40E" stroke="#85340A" stroke-width="1.1116" d="M404.084,252.499l-3.813-101.289
					c0,0,0.002-1.905-1.269-1.907c-1.27-0.001-1.27,1.905-1.27,1.905l-3.812,101.291 M408.572,219.77
					c5.837-12.744,0.823-23.162,6.651-34.289c5.828-11.129,2.186-20.293,2.575-25.398c0.388-5.105,4.567-6.523,3.514-7.71
					c-1.059-1.187-5.421,1.166-7.126,7.947c-1.705,6.781,2.361,10.688-4.629,24.333c-6.984,13.646-1.433,19.798-8.451,31.979"/>
			</g>
			<g transform="rotate(45 400,250)">
				<path id="ray1_10_" fill="#F6B40E" stroke="#85340A" stroke-width="1.1116" d="M403.696,254.443l35.242-95.036
					c0,0,0.729-1.759-0.443-2.247c-1.173-0.488-1.902,1.274-1.902,1.274l-42.284,92.123 M420.367,225.925
					c10.271-9.542,9.624-21.084,19.269-29.134c9.644-8.053,9.785-17.912,12.099-22.479c2.313-4.569,6.717-4.278,6.195-5.779
					c-0.521-1.502-5.454-0.997-9.622,4.614c-4.17,5.613-1.909,10.778-13.587,20.711s-8.904,17.741-20.049,26.309"/>
			</g>
			<g transform="rotate(67.5 400,250)">
				<path id="ray1_11_" fill="#F6B40E" stroke="#85340A" stroke-width="1.1116" d="M402.596,256.093l68.927-74.317
					c0,0,1.348-1.346,0.451-2.245c-0.898-0.899-2.244,0.449-2.244,0.449l-74.32,68.927 M428.912,236.125
					c13.139-4.886,16.959-15.796,28.949-19.544c11.99-3.747,15.895-12.803,19.78-16.138c3.885-3.334,7.844-1.383,7.937-2.968
					c0.092-1.587-4.658-3.01-10.659,0.581c-6,3.591-5.888,9.228-20.478,13.935c-14.587,4.709-15.014,12.984-28.587,16.634"/>
			</g>
			<path id="ray2_8_" fill="#85340A" d="M392.595,216.226c-0.674-13.453-8.302-19.411-6.804-31.673
				c-3.289,9.697,4.641,17.213,4.19,31.534 M401.349,251.39l-28.958-63.27l24.264,65.215"/>
			<g transform="rotate(22.5 400,250)">
				<path id="ray2_9_" fill="#85340A" d="M406.965,216.536c4.525-12.687-0.243-21.111,5.833-31.865
					c-6.748,7.7-2.299,17.679-8.195,30.737 M401.595,252.371l-2.542-69.533l-2.54,69.538"/>
			</g>
			<g transform="rotate(45 400,250)">
				<path id="ray2_10_" fill="#85340A" d="M420.12,222.322c9.038-9.989,7.856-19.597,17.585-27.206
					c-9.182,4.53-8.89,15.452-19.335,25.261 M401.445,253.375l24.262-65.214l-28.956,63.273"/>
			</g>
			<g transform="rotate(180 400,250)">
				<path id="ray2_11_" fill="#85340A" d="M430.061,232.701c12.172-5.771,14.757-15.099,26.658-18.406
					c-10.217,0.672-14.125,10.875-27.528,15.938 M400.925,254.244l47.371-50.967l-50.966,47.377"/>
			</g>
		</g>
		<g>
			<g id="rays_3_">
				<path id="ray1_12_" fill="#F6B40E" stroke="#85340A" stroke-width="1.1116" d="M400.947,257.197l92.119-42.283
					c0,0,1.762-0.729,1.275-1.902c-0.484-1.174-2.244-0.444-2.244-0.444l-95.041,35.24 M432.9,248.817
					c14.011,0.516,21.713-8.102,34.226-6.976c12.512,1.126,19.587-5.746,24.449-7.339c4.865-1.596,7.777,1.723,8.469,0.294
					c0.693-1.432-3.151-4.563-10.068-3.54c-6.918,1.019-8.972,6.27-24.252,5.036c-15.281-1.233-18.839,6.25-32.777,4.428"/>
				<g transform="rotate(22.5 400,250)">
					<path id="ray1_13_" fill="#F6B40E" stroke="#85340A" stroke-width="1.1116" d="M399.001,257.584l101.289-3.813
						c0,0,1.906,0.001,1.907-1.269c0-1.271-1.906-1.271-1.906-1.271l-101.29-3.813 M431.729,262.07
						c12.746,5.84,23.162,0.824,34.288,6.654c11.132,5.826,20.297,2.186,25.399,2.575c5.106,0.388,6.524,4.567,7.712,3.514
						c1.187-1.059-1.167-5.422-7.947-7.126c-6.782-1.705-10.688,2.361-24.333-4.628c-13.646-6.985-19.798-1.435-31.978-8.452"/>
				</g>
				<g transform="rotate(45 400,250)">
					<path id="ray1_14_" fill="#F6B40E" stroke="#85340A" stroke-width="1.1116" d="M397.056,257.197l95.037,35.241
						c0,0,1.761,0.729,2.248-0.443c0.487-1.172-1.274-1.901-1.274-1.901l-92.123-42.285 M425.574,273.867
						c9.542,10.27,21.085,9.625,29.136,19.269s17.91,9.785,22.478,12.098c4.568,2.314,4.279,6.718,5.779,6.196
						c1.504-0.521,0.998-5.454-4.615-9.622c-5.613-4.17-10.778-1.909-20.709-13.589c-9.934-11.676-17.741-8.902-26.31-20.046"/>
				</g>
				<g transform="rotate(67.5 400,250)">
					<path id="ray1_15_" fill="#F6B40E" stroke="#85340A" stroke-width="1.1116" d="M395.407,256.094l74.315,68.929
						c0,0,1.349,1.348,2.247,0.45c0.899-0.897-0.449-2.246-0.449-2.246l-68.927-74.316 M415.374,282.409
						c4.886,13.142,15.798,16.962,19.542,28.952c3.75,11.989,12.805,15.894,16.139,19.779c3.337,3.886,1.383,7.844,2.97,7.938
						c1.588,0.091,3.007-4.658-0.581-10.658c-3.59-6.002-9.228-5.889-13.935-20.479c-4.709-14.59-12.984-15.013-16.636-28.587"/>
				</g>
				<path id="ray2_12_" fill="#85340A" d="M435.274,246.095c13.453-0.674,19.409-8.301,31.671-6.803
					c-9.695-3.29-17.213,4.641-31.532,4.188 M400.109,254.849l63.271-28.958l-65.217,24.265"/>
				<g transform="rotate(22.5 400,250)">
					<path id="ray2_13_" fill="#85340A" d="M434.963,260.465c12.688,4.525,21.112-0.244,31.867,5.833
						c-7.701-6.749-17.682-2.299-30.738-8.195 M399.127,255.094l69.534-2.542l-69.537-2.538"/>
				</g>
				<g transform="rotate(45 400,250)">
					<path id="ray2_14_" fill="#85340A" d="M429.179,273.62c9.989,9.037,19.595,7.855,27.206,17.583
						c-4.529-9.18-15.453-8.888-25.26-19.332 M398.125,254.946l65.214,24.262l-63.273-28.957"/>
				</g>
				<g transform="rotate(270 400,250)">
					<path id="ray2_15_" fill="#85340A" d="M418.798,283.561c5.772,12.173,15.098,14.757,18.408,26.658
						c-0.674-10.217-10.878-14.126-15.938-27.528 M397.256,254.426l50.966,47.368l-47.376-50.965"/>
				</g>
			</g>
			<circle fill="#F6B40E" stroke="#85340A" stroke-width="1.5" cx="399" cy="252.5" r="41.278"/>
			<path id="loweyecontour" fill="#843511" d="M413.074,243.673c-2.819,0-5.52,1.222-7.105,3.761
				c3.174,2.857,10.188,3.168,14.951-0.324c-2.063-2.223-5.029-3.437-7.848-3.437H413.074z M413.027,244.323
				c2.742-0.049,5.306,1.211,5.665,2.462c-3.176,3.492-8.249,3.188-11.423,0.649C408.655,245.213,410.892,244.363,413.027,244.323
				L413.027,244.323z"/>
			<g transform="matrix(-1 0 0 1 800.25 0)">
				<path id="uppalpebra" fill="#85340A" d="M413.606,241.713c-4.127,0-5.079,0.952-6.984,2.54
					c-1.907,1.587-2.858,1.268-3.176,1.587c-0.315,0.318,0,1.27,0.636,0.951c0.633-0.319,1.906-0.951,3.808-2.539
					c1.907-1.589,3.809-1.588,5.715-1.588c5.717,0,8.893,4.763,9.526,4.445c0.633-0.319-3.176-5.398-9.526-5.398L413.606,241.713z"
					/>
			</g>
			<g transform="matrix(-1 0 0 1 800.25 0)">
				<path id="eyebrow_nose" fill="#85340A" d="M425.034,243.613c-7.303-6.348-16.508-7.302-21.591-2.537
					c-1.245,1.664-2.041,3.445-2.368,5.304c-0.64,3.615,0.489,7.521,3.323,11.525c-0.32-0.001-0.955,0.314-1.273,0.634
					c-2.521-4.82-3.412-9.771-2.584-14.483c0.215-1.229,0.555-2.44,0.994-3.619c6.984-5.713,16.51-6.348,23.496,3.177H425.034z"/>
			</g>
			<g transform="translate(18.862)">
				<circle id="pupil" fill="#85340A" cx="412.973" cy="246.779" r="2.857"/>
			</g>
			<g transform="matrix(-1 0 0 1 800.25 0)">
				<path id="lowpalpebra" fill="#85340A" d="M421.229,248.696c-5.396,4.128-10.795,3.81-13.97,1.905
					c-3.174-1.905-3.174-2.54-2.542-2.54c0.636,0,1.267,0.635,3.812,1.904c2.538,1.272,6.348,1.272,12.696-1.268L421.229,248.696z"
					/>
			</g>
			<path fill="#85340A" d="M392.685,258.207c-1.357,0.246-2.322,1.452-2.322,2.832c0,1.577,1.304,2.833,2.879,2.833
				c0.931,0,1.787-0.442,2.322-1.209c1.1,0.826,2.622,0.915,3.437,0.931c0.125,0.002,0.287,0,0.371,0
				c0.814-0.016,2.338-0.104,3.437-0.931c0.534,0.767,1.392,1.209,2.321,1.209c1.577,0,2.88-1.256,2.88-2.833
				c0-1.38-0.965-2.586-2.322-2.832c0.764,0.267,1.255,1.004,1.255,1.81c0,1.051-0.85,1.904-1.905,1.904
				c-1.009,0-1.845-0.803-1.904-1.813c-0.31,0.619-1.536,2.461-3.946,2.555c-2.41-0.094-3.637-1.936-3.947-2.555
				c-0.059,1.01-0.892,1.813-1.903,1.813c-1.056,0-1.904-0.854-1.904-1.904C391.432,259.211,391.923,258.474,392.685,258.207
				L392.685,258.207z"/>
			<path fill="#85340A" d="M395.79,266.661c-3.177,0-4.433,2.879-7.291,4.783c1.589-0.633,2.838-1.885,5.063-3.157
				c2.223-1.271,4.118,0.278,5.386,0.278h0.047c1.267,0,3.163-1.549,5.386-0.278c2.223,1.272,3.521,2.524,5.108,3.157
				c-2.859-1.904-4.16-4.783-7.337-4.783c-0.636,0-1.891,0.344-3.158,0.975h-0.047C397.68,267.004,396.424,266.661,395.79,266.661z"
				/>
			<path fill="#85340A" d="M394.72,270.421c-1.255,0.055-2.912,0.308-5.293,1.021c5.717-1.271,6.979,0.651,9.519,0.651h0.046
				c2.541,0,3.803-1.922,9.519-0.651c-6.351-1.905-7.613-0.65-9.519-0.65h-0.046C397.756,270.792,396.81,270.328,394.72,270.421
				L394.72,270.421z"/>
			<path fill="#85340A" d="M389.712,271.402c-0.369,0.004-0.771,0.008-1.208,0.047c6.669,0.635,3.463,4.458,10.449,4.458H399
				c6.984,0,3.824-3.823,10.495-4.458c-6.987-0.634-4.777,3.482-10.495,3.482h-0.046
				C393.593,274.931,395.244,271.333,389.712,271.402L389.712,271.402z"/>
			<path fill="#85340A" d="M404.72,281.715c0-3.156-2.56-5.716-5.715-5.716c-3.154,0-5.715,2.56-5.715,5.716
				c0.629-2.646,2.996-4.518,5.715-4.518C401.73,277.198,404.094,279.069,404.72,281.715L404.72,281.715L404.72,281.715z"/>
			<path id="eyebrow_nose_1_" fill="#85340A" d="M373.337,243.613c7.303-6.348,16.509-7.302,21.591-2.537
				c1.245,1.664,2.042,3.445,2.368,5.304c0.64,3.615-0.491,7.521-3.324,11.525c0.32-0.001,0.957,0.314,1.273,0.634
				c2.521-4.82,3.413-9.771,2.586-14.483c-0.216-1.229-0.556-2.44-0.996-3.619c-6.985-5.713-16.508-6.348-23.495,3.177H373.337z"/>
			<path id="uppalpebra_1_" fill="#85340A" d="M384.764,241.713c4.126,0,5.081,0.952,6.985,2.54
				c1.907,1.587,2.859,1.268,3.175,1.587c0.316,0.318,0,1.27-0.633,0.951c-0.635-0.319-1.908-0.951-3.81-2.539
				c-1.906-1.589-3.808-1.588-5.715-1.588c-5.716,0-8.891,4.763-9.525,4.445c-0.634-0.319,3.175-5.398,9.525-5.398L384.764,241.713z
				"/>
			<g transform="translate(-19.181)">
				<path id="loweyecontour_1_" fill="#843511" d="M384.57,243.673c-2.819,0-5.518,1.222-7.105,3.761
					c3.175,2.857,10.188,3.168,14.952-0.324C390.354,244.887,387.388,243.673,384.57,243.673L384.57,243.673z M384.523,244.323
					c2.743-0.049,5.308,1.211,5.666,2.462c-3.176,3.492-8.249,3.188-11.423,0.649C380.153,245.213,382.389,244.363,384.523,244.323
					L384.523,244.323z"/>
			</g>
			<circle id="pupil_1_" fill="#85340A" cx="384.942" cy="246.779" r="2.857"/>
			<path id="lowpalpebra_1_" fill="#85340A" d="M377.141,248.696c5.398,4.128,10.795,3.81,13.971,1.905
				c3.175-1.905,3.175-2.54,2.541-2.54c-0.634,0-1.269,0.635-3.81,1.904c-2.541,1.272-6.349,1.272-12.699-1.268L377.141,248.696z"/>
		</g>
	</g>
</g>
</svg>
