<?xml version="1.0" encoding="utf-8"?>
<!-- Generator: Adobe Illustrator 16.0.0, SVG Export Plug-In . SVG Version: 6.00 Build 0)  -->
<!DOCTYPE svg PUBLIC "-//W3C//DTD SVG 1.1//EN" "http://www.w3.org/Graphics/SVG/1.1/DTD/svg11.dtd">
<svg version="1.1" id="Capa_1" xmlns="http://www.w3.org/2000/svg" xmlns:xlink="http://www.w3.org/1999/xlink" x="0px" y="0px"
	 width="650px" height="500px" viewBox="49.678 12.275 650 500" enable-background="new 49.678 12.275 650 500"
	 xml:space="preserve">
<g transform="translate(134.6782 82.27474)">
	<path fill="#FFFFFF" d="M191.04,249.795l1.26,4.926l-4.297-2.719l-4.295,2.719l1.259-4.926l-3.915-3.246l5.076-0.324l1.875-4.727
		l1.878,4.727l5.074,0.324L191.04,249.795z"/>
	<path fill="#FFFFFF" d="M150.157,210.23l1.26,4.93l-4.297-2.723l-4.296,2.723l1.258-4.93l-3.914-3.243l5.075-0.325l1.877-4.725
		l1.876,4.725l5.075,0.325L150.157,210.23z"/>
	<path fill="#FFFFFF" d="M139.377,155.786l1.26,4.926l-4.296-2.72l-4.297,2.72l1.26-4.926l-3.915-3.245l5.076-0.325l1.877-4.727
		l1.875,4.727l5.076,0.325L139.377,155.786z"/>
	<path fill="#009C37" d="M617.678-86.275v524.549h-749.356V-86.275H617.678z"/>
	<path fill="#FEE000" d="M553.982,176L243,374.579L-67.983,176L243-22.579L553.982,176z"/>
	<path fill="#002277" d="M243,44.862c72.412,0,131.137,58.725,131.137,131.139S315.412,307.138,243,307.138
		c-72.414,0-131.137-58.725-131.137-131.137C111.863,103.588,170.586,44.862,243,44.862z"/>
	<path fill="#FFFFFF" d="M286.123,131.495l1.26,4.927l-4.295-2.721l-4.297,2.721l1.26-4.927l-3.916-3.244l5.077-0.325l1.876-4.728
		l1.874,4.728l5.075,0.325L286.123,131.495z"/>
	<path fill="#FFFFFF" d="M275.92,168.941l0.904,3.544l-3.09-1.956l-3.092,1.956l0.908-3.544l-2.818-2.334l3.651-0.232l1.351-3.4
		l1.35,3.4l3.65,0.232L275.92,168.941z"/>
	<path fill="#FFFFFF" d="M139.376,155.786l1.259,4.926l-4.294-2.72l-4.297,2.72l1.261-4.926l-3.917-3.245l5.077-0.325l1.875-4.727
		l1.875,4.727l5.076,0.325L139.376,155.786z"/>
	<path fill="#FFFFFF" d="M194.394,182.398l1.064,4.157l-3.627-2.295l-3.626,2.295l1.064-4.157l-3.305-2.741l4.283-0.272l1.583-3.987
		l1.585,3.987l4.282,0.272L194.394,182.398z"/>
	<path fill="#FFFFFF" d="M160.769,201.124l0.678,2.65l-2.312-1.463l-2.31,1.463l0.676-2.65l-2.105-1.746l2.729-0.174l1.01-2.543
		l1.01,2.543l2.731,0.174L160.769,201.124z"/>
	<path fill="#FFFFFF" d="M150.156,210.234l1.259,4.926l-4.294-2.721l-4.297,2.721l1.261-4.926l-3.917-3.245l5.077-0.325l1.875-4.727
		l1.875,4.727l5.076,0.325L150.156,210.234z"/>
	<path fill="#FFFFFF" d="M135.95,221.379l1.063,4.157l-3.625-2.295l-3.626,2.295l1.063-4.157l-3.303-2.737l4.281-0.275l1.585-3.99
		l1.583,3.99l4.283,0.275L135.95,221.379z"/>
	<path fill="#FFFFFF" d="M176.198,222.399l1.063,4.16l-3.625-2.298l-3.625,2.298l1.063-4.16l-3.303-2.738l4.283-0.274l1.583-3.988
		l1.583,3.988l4.281,0.274L176.198,222.399z"/>
	<path fill="#FFFFFF" d="M171.077,236.07l0.905,3.544l-3.09-1.957l-3.09,1.957l0.906-3.544l-2.815-2.334l3.651-0.232l1.349-3.402
		l1.35,3.402l3.651,0.232L171.077,236.07z"/>
	<path fill="#FFFFFF" d="M191.04,249.795l1.26,4.926l-4.295-2.72l-4.297,2.72l1.261-4.926l-3.916-3.245l5.077-0.325l1.875-4.727
		l1.875,4.727l5.076,0.325L191.04,249.795z"/>
	<path fill="#FFFFFF" d="M244.818,280.655l0.486,1.894l-1.652-1.046l-1.65,1.046l0.484-1.894l-1.503-1.245l1.948-0.127l0.721-1.815
		l0.722,1.815l1.95,0.127L244.818,280.655z"/>
	<path fill="#FFFFFF" d="M246.553,200.013l1.061,4.158l-3.625-2.296l-3.626,2.296l1.063-4.158l-3.304-2.738l4.282-0.275l1.584-3.988
		l1.584,3.988l4.281,0.275L246.553,200.013z"/>
	<path fill="#FFFFFF" d="M258.545,211.233l1.064,4.158l-3.625-2.298l-3.625,2.298l1.061-4.158l-3.303-2.737l4.281-0.275l1.586-3.987
		l1.584,3.987l4.282,0.275L258.545,211.233z"/>
	<path fill="#FFFFFF" d="M237.022,219.373l0.678,2.649l-2.312-1.462l-2.311,1.462l0.677-2.649l-2.107-1.745l2.73-0.175l1.01-2.544
		l1.01,2.544l2.731,0.175L237.022,219.373z"/>
	<path fill="#FFFFFF" d="M228.008,212.609l0.905,3.543l-3.09-1.957l-3.09,1.957l0.905-3.543l-2.815-2.337l3.651-0.231l1.35-3.401
		l1.35,3.401l3.651,0.231L228.008,212.609z"/>
	<path fill="#FFFFFF" d="M246.261,238.434l1.26,4.927l-4.294-2.721l-4.298,2.721l1.261-4.927l-3.917-3.244l5.077-0.325l1.876-4.728
		l1.873,4.728l5.076,0.325L246.261,238.434z"/>
	<path fill="#FFFFFF" d="M272.449,251.47l0.903,3.546l-3.089-1.957l-3.09,1.957l0.904-3.546l-2.816-2.332l3.651-0.233l1.351-3.398
		l1.35,3.398l3.649,0.233L272.449,251.47z"/>
	<path fill="#FFFFFF" d="M283.576,267.785l1.063,4.16l-3.624-2.298l-3.627,2.298l1.063-4.16l-3.304-2.735l4.281-0.276l1.586-3.988
		l1.58,3.988l4.284,0.276L283.576,267.785z"/>
	<path fill="#FFFFFF" d="M295.17,254.771l0.906,3.542l-3.09-1.955l-3.092,1.955l0.906-3.542l-2.814-2.333l3.648-0.234l1.352-3.4
		l1.348,3.4l3.652,0.234L295.17,254.771z"/>
	<path fill="#FFFFFF" d="M310.807,278.232l0.906,3.546l-3.09-1.958l-3.09,1.958l0.904-3.546l-2.816-2.333l3.652-0.233l1.35-3.399
		l1.348,3.399l3.652,0.233L310.807,278.232z"/>
	<path fill="#FFFFFF" d="M311.338,264.605l1.063,4.157l-3.627-2.296l-3.625,2.296l1.064-4.157l-3.303-2.74l4.281-0.272l1.582-3.99
		l1.584,3.99l4.283,0.272L311.338,264.605z"/>
	<path fill="#FFFFFF" d="M310.6,251.731l0.908,3.542l-3.092-1.955l-3.088,1.955l0.904-3.542l-2.814-2.336l3.65-0.234l1.348-3.399
		l1.352,3.399l3.65,0.234L310.6,251.731z"/>
	<path fill="#FFFFFF" d="M323.555,251.856l0.904,3.547l-3.09-1.958l-3.09,1.958l0.906-3.547l-2.818-2.331l3.65-0.234l1.352-3.399
		l1.35,3.399l3.65,0.234L323.555,251.856z"/>
	<path fill="#FFFFFF" d="M336.18,246.448l1.064,4.154l-3.627-2.294l-3.627,2.294l1.064-4.154l-3.303-2.741l4.283-0.272l1.582-3.989
		l1.584,3.989l4.281,0.272L336.18,246.448z"/>
	<path fill="#FFFFFF" d="M342.381,236.043l1.064,4.155l-3.629-2.293l-3.625,2.293l1.064-4.155l-3.303-2.74l4.281-0.273l1.582-3.988
		l1.586,3.988l4.281,0.273L342.381,236.043z"/>
	<path fill="#FFFFFF" d="M337.662,223.306l1.26,4.926l-4.295-2.72l-4.297,2.72l1.262-4.926l-3.916-3.245l5.076-0.325l1.875-4.727
		l1.875,4.727l5.076,0.325L337.662,223.306z"/>
	<path fill="#FFFFFF" d="M356.006,224.165l0.906,3.544l-3.09-1.956l-3.092,1.956l0.908-3.544l-2.818-2.331l3.65-0.237l1.352-3.399
		l1.35,3.399l3.648,0.237L356.006,224.165z"/>
	<path fill="#FFFFFF" d="M164.665,135.576c-16.143,0-32.006,1.228-47.504,3.595c1.894-6.483,4.282-12.758,7.115-18.788
		c13.245-1.619,26.719-2.47,40.391-2.47c78.836,0,151.387,27.727,208.396,73.897c-0.834,6.718-2.174,13.283-3.994,19.65
		C314.082,164.203,242.617,135.576,164.665,135.576L164.665,135.576z"/>
	<path fill="#009C37" d="M130.923,128.775c0.11,1.28,0.482,2.251,1.111,2.912c0.629,0.66,1.456,0.944,2.479,0.857
		c1.032-0.089,1.806-0.512,2.32-1.271c0.514-0.757,0.714-1.777,0.604-3.059c-0.11-1.278-0.481-2.248-1.117-2.907
		c-0.636-0.661-1.47-0.945-2.502-0.856c-1.021,0.088-1.788,0.51-2.296,1.266C131.014,126.472,130.813,127.49,130.923,128.775z
		 M128.483,128.984c-0.162-1.88,0.223-3.414,1.152-4.605c0.929-1.19,2.263-1.863,4.002-2.012c1.737-0.149,3.167,0.284,4.293,1.302
		c1.125,1.018,1.768,2.464,1.929,4.338c0.161,1.876-0.225,3.413-1.161,4.606c-0.936,1.194-2.271,1.867-4.007,2.015
		c-1.74,0.149-3.168-0.284-4.288-1.302C129.285,132.309,128.644,130.861,128.483,128.984L128.483,128.984z M147.489,126.809
		l2.825-0.094c0.61-0.021,1.056-0.161,1.337-0.418c0.278-0.259,0.409-0.654,0.39-1.188c-0.017-0.507-0.169-0.886-0.458-1.14
		c-0.288-0.253-0.711-0.369-1.264-0.351l-2.934,0.098L147.489,126.809L147.489,126.809z M145.305,133.458l-0.39-11.674l5.663-0.188
		c1.271-0.044,2.225,0.198,2.855,0.722c0.633,0.523,0.966,1.347,1.003,2.466c0.023,0.711-0.105,1.313-0.389,1.798
		c-0.281,0.486-0.702,0.825-1.256,1.018c0.515,0.164,0.883,0.426,1.112,0.788c0.226,0.363,0.368,0.936,0.426,1.717l0.095,1.376
		c0,0.012,0,0.028,0.001,0.049c0.036,0.695,0.202,1.114,0.495,1.251l0.011,0.357l-2.634,0.089c-0.089-0.162-0.159-0.36-0.211-0.6
		c-0.052-0.239-0.091-0.525-0.11-0.858l-0.074-1.227c-0.051-0.722-0.202-1.207-0.456-1.45c-0.255-0.247-0.703-0.357-1.343-0.337
		l-2.546,0.085l0.152,4.539L145.305,133.458L145.305,133.458z M162.542,130.835l1.927,0.037c1.116,0.021,1.93-0.256,2.438-0.83
		c0.512-0.572,0.779-1.518,0.804-2.828c0.025-1.304-0.19-2.27-0.643-2.891c-0.455-0.624-1.175-0.942-2.165-0.962l-2.219-0.042
		L162.542,130.835L162.542,130.835z M160.147,132.899l0.222-11.678l4.573,0.086c1.791,0.034,3.119,0.544,3.98,1.526
		c0.862,0.983,1.275,2.458,1.238,4.425c-0.02,1.067-0.201,2.006-0.541,2.813c-0.341,0.808-0.828,1.454-1.453,1.938
		c-0.473,0.36-1.004,0.617-1.601,0.768c-0.596,0.148-1.426,0.215-2.496,0.193L160.147,132.899L160.147,132.899z M174.967,133.159
		l0.629-11.662l8.47,0.458l-0.11,2.027l-6.104-0.329l-0.133,2.486l5.582,0.302l-0.108,1.994l-5.582-0.302l-0.163,3.001l6.39,0.345
		l-0.116,2.154L174.967,133.159L174.967,133.159z M188.714,133.976l1.238-11.613l3.535,0.377l1.367,9.086l3.222-8.597l3.548,0.379
		l-1.238,11.614l-2.239-0.239l0.998-9.366l-3.357,9.115l-2.444-0.262l-1.392-9.621l-0.998,9.366L188.714,133.976L188.714,133.976z
		 M219.663,137.96l2.447-11.42l8.295,1.776l-0.425,1.985l-5.976-1.279l-0.522,2.435l5.465,1.17l-0.417,1.955l-5.467-1.171
		l-0.629,2.938l6.257,1.341l-0.452,2.11L219.663,137.96L219.663,137.96z M250.578,138.682l2.244,0.605
		c0.605,0.164,1.08,0.153,1.428-0.028c0.346-0.186,0.596-0.561,0.748-1.133c0.145-0.535,0.118-0.977-0.076-1.327
		c-0.198-0.348-0.563-0.594-1.099-0.739l-2.366-0.637L250.578,138.682L250.578,138.682z M250.013,140.722l-1.08,4.012l-2.321-0.625
		l3.041-11.278l5.014,1.353c1.184,0.318,1.998,0.87,2.445,1.648c0.441,0.778,0.506,1.762,0.184,2.954
		c-0.313,1.163-0.854,1.979-1.619,2.448c-0.768,0.469-1.71,0.555-2.813,0.258L250.013,140.722L250.013,140.722z M264.055,142.558
		l2.702,0.83c0.583,0.18,1.052,0.192,1.403,0.039c0.348-0.152,0.597-0.484,0.756-0.996c0.147-0.483,0.127-0.893-0.063-1.226
		c-0.191-0.331-0.555-0.58-1.082-0.742l-2.806-0.863L264.055,142.558L264.055,142.558z M259.827,148.133l3.433-11.164l5.415,1.664
		c1.218,0.374,2.038,0.912,2.462,1.613c0.43,0.701,0.477,1.587,0.146,2.659c-0.208,0.681-0.525,1.207-0.953,1.572
		c-0.426,0.368-0.932,0.552-1.517,0.553c0.431,0.322,0.694,0.69,0.794,1.107c0.096,0.418,0.041,1.005-0.155,1.763l-0.358,1.331
		c-0.008,0.011-0.011,0.026-0.015,0.046c-0.19,0.669-0.171,1.119,0.061,1.345l-0.104,0.342l-2.521-0.774
		c-0.03-0.183-0.03-0.393-0.004-0.636c0.029-0.243,0.084-0.526,0.177-0.846l0.329-1.186c0.186-0.698,0.201-1.206,0.039-1.52
		c-0.16-0.315-0.548-0.568-1.157-0.754l-2.435-0.749l-1.335,4.343l-2.299-0.71H259.827z M277.615,148.092
		c-0.441,1.208-0.516,2.244-0.223,3.108c0.293,0.865,0.92,1.473,1.882,1.824c0.974,0.355,1.854,0.3,2.642-0.17
		c0.785-0.471,1.398-1.311,1.84-2.517s0.514-2.242,0.217-3.108s-0.934-1.478-1.905-1.833c-0.964-0.353-1.837-0.295-2.616,0.176
		C278.67,146.043,278.057,146.882,277.615,148.092L277.615,148.092z M275.315,147.25c0.646-1.771,1.646-3.001,2.99-3.687
		c1.347-0.688,2.839-0.732,4.48-0.134c1.637,0.6,2.751,1.597,3.338,2.995c0.589,1.397,0.563,2.979-0.083,4.746
		c-0.648,1.771-1.647,2.998-3,3.686c-1.35,0.688-2.846,0.732-4.482,0.134c-1.643-0.601-2.752-1.597-3.337-2.992
		C274.638,150.601,274.666,149.019,275.315,147.25L275.315,147.25z M296.922,160.967c-0.631,0.37-1.252,0.572-1.867,0.611
		c-0.615,0.034-1.268-0.093-1.955-0.387c-1.502-0.64-2.494-1.68-2.982-3.119c-0.486-1.44-0.367-3.011,0.357-4.707
		c0.729-1.711,1.779-2.884,3.145-3.513c1.365-0.631,2.822-0.615,4.369,0.043c1.348,0.574,2.309,1.363,2.887,2.37
		c0.572,1.008,0.703,2.111,0.381,3.306l-2.254-0.961c0.102-0.615,0.008-1.159-0.289-1.629c-0.299-0.471-0.785-0.853-1.461-1.14
		c-0.898-0.384-1.744-0.355-2.539,0.085c-0.797,0.439-1.438,1.241-1.934,2.402c-0.498,1.169-0.621,2.195-0.367,3.087
		c0.252,0.888,0.846,1.531,1.781,1.93c0.697,0.299,1.373,0.341,2.02,0.129c0.648-0.214,1.184-0.656,1.6-1.328l-2.436-1.036
		l0.785-1.839l4.449,1.896l-2.479,5.813l-1.48-0.632L296.922,160.967L296.922,160.967z M308.027,160.659l2.537,1.244
		c0.551,0.268,1.01,0.354,1.379,0.258c0.367-0.099,0.666-0.387,0.902-0.867c0.225-0.455,0.266-0.86,0.133-1.221
		c-0.137-0.357-0.457-0.659-0.953-0.902l-2.635-1.291L308.027,160.659L308.027,160.659z M302.979,165.505l5.137-10.489l5.088,2.491
		c1.143,0.559,1.871,1.22,2.182,1.979s0.221,1.642-0.273,2.647c-0.311,0.64-0.709,1.109-1.188,1.405
		c-0.479,0.298-1.006,0.399-1.584,0.308c0.377,0.387,0.578,0.791,0.611,1.219c0.029,0.427-0.115,0.998-0.43,1.716l-0.564,1.26
		c-0.006,0.01-0.01,0.023-0.018,0.042c-0.297,0.632-0.348,1.08-0.15,1.338l-0.158,0.32l-2.369-1.158
		c-0.002-0.186,0.029-0.393,0.094-0.629c0.068-0.235,0.166-0.507,0.307-0.81l0.51-1.118c0.295-0.66,0.389-1.16,0.277-1.495
		c-0.109-0.335-0.451-0.645-1.025-0.926l-2.285-1.121l-2,4.079l-2.158-1.058H302.979z M316.031,172.208l5.678-10.207l7.414,4.124
		l-0.988,1.775l-5.34-2.972l-1.211,2.176l4.885,2.718l-0.971,1.745l-4.885-2.717l-1.459,2.625l5.59,3.111l-1.049,1.885
		L316.031,172.208L316.031,172.208z M329.209,175.828l2.031,1.224c-0.252,0.594-0.271,1.136-0.063,1.625
		c0.211,0.487,0.668,0.942,1.369,1.365c0.602,0.362,1.113,0.524,1.545,0.495c0.432-0.027,0.771-0.252,1.023-0.668
		c0.363-0.608-0.203-1.634-1.709-3.084c-0.018-0.019-0.037-0.036-0.051-0.051c-0.039-0.037-0.1-0.095-0.182-0.176
		c-0.811-0.768-1.34-1.396-1.582-1.889c-0.219-0.438-0.303-0.908-0.258-1.4c0.045-0.495,0.223-1.001,0.537-1.523
		c0.588-0.973,1.369-1.519,2.344-1.64c0.971-0.119,2.082,0.196,3.332,0.95c1.168,0.704,1.916,1.531,2.24,2.479
		c0.324,0.95,0.203,1.937-0.367,2.966l-1.975-1.192c0.254-0.507,0.293-0.987,0.109-1.44c-0.184-0.456-0.584-0.871-1.203-1.244
		c-0.541-0.325-1.016-0.472-1.438-0.436c-0.42,0.034-0.744,0.246-0.98,0.636c-0.318,0.53,0.012,1.266,0.988,2.215
		c0.264,0.258,0.471,0.46,0.617,0.604c0.617,0.624,1.049,1.084,1.293,1.369c0.242,0.288,0.438,0.565,0.588,0.83
		c0.27,0.471,0.396,0.956,0.373,1.451c-0.02,0.496-0.189,1.008-0.504,1.526c-0.629,1.039-1.463,1.634-2.512,1.786
		c-1.045,0.149-2.207-0.158-3.482-0.929c-1.26-0.759-2.07-1.646-2.434-2.661C328.498,178,328.615,176.938,329.209,175.828
		L329.209,175.828z M341.52,183.526l1.965,1.329c-0.285,0.578-0.334,1.118-0.148,1.619c0.188,0.499,0.617,0.975,1.295,1.436
		c0.58,0.393,1.084,0.583,1.516,0.576c0.434-0.005,0.783-0.21,1.059-0.614c0.398-0.588-0.119-1.642-1.543-3.168
		c-0.02-0.021-0.037-0.037-0.049-0.056c-0.039-0.037-0.098-0.1-0.174-0.184c-0.77-0.808-1.264-1.462-1.48-1.969
		c-0.195-0.452-0.254-0.922-0.186-1.413c0.07-0.49,0.277-0.987,0.617-1.492c0.637-0.939,1.449-1.445,2.426-1.515
		c0.975-0.067,2.068,0.307,3.279,1.124c1.129,0.767,1.832,1.628,2.107,2.593c0.273,0.968,0.102,1.947-0.521,2.945l-1.912-1.294
		c0.281-0.494,0.344-0.972,0.188-1.435c-0.16-0.464-0.537-0.9-1.137-1.303c-0.523-0.355-0.994-0.525-1.414-0.515
		c-0.418,0.015-0.756,0.209-1.01,0.583c-0.35,0.513-0.057,1.267,0.867,2.267c0.25,0.27,0.449,0.482,0.586,0.634
		c0.584,0.656,0.99,1.135,1.217,1.437c0.229,0.3,0.41,0.587,0.545,0.856c0.244,0.486,0.346,0.974,0.299,1.47
		c-0.049,0.494-0.24,0.995-0.582,1.499c-0.684,1.006-1.547,1.557-2.602,1.65c-1.055,0.095-2.197-0.274-3.436-1.111
		c-1.215-0.822-1.98-1.75-2.287-2.783C340.695,185.655,340.865,184.603,341.52,183.526L341.52,183.526z M356.361,191.404
		c-0.777,1.022-1.148,1.995-1.125,2.905c0.027,0.911,0.451,1.677,1.268,2.296c0.828,0.625,1.686,0.828,2.574,0.61
		c0.891-0.221,1.721-0.848,2.496-1.873c0.773-1.021,1.146-1.99,1.117-2.908c-0.031-0.914-0.463-1.683-1.289-2.308
		c-0.816-0.621-1.67-0.818-2.551-0.598C357.969,189.752,357.139,190.376,356.361,191.404L356.361,191.404z M354.406,189.926
		c1.135-1.505,2.451-2.388,3.938-2.651c1.488-0.264,2.93,0.13,4.322,1.185c1.393,1.051,2.164,2.33,2.32,3.837
		c0.154,1.511-0.336,3.016-1.469,4.516c-1.137,1.503-2.451,2.386-3.943,2.648c-1.496,0.261-2.939-0.135-4.326-1.185
		c-1.395-1.055-2.166-2.331-2.316-3.835C352.781,192.935,353.271,191.429,354.406,189.926L354.406,189.926z"/>
</g>
</svg>
