<?xml version="1.0" encoding="utf-8"?>
<!-- Generator: Adobe Illustrator 16.0.0, SVG Export Plug-In . SVG Version: 6.00 Build 0)  -->
<!DOCTYPE svg PUBLIC "-//W3C//DTD SVG 1.1//EN" "http://www.w3.org/Graphics/SVG/1.1/DTD/svg11.dtd">
<svg version="1.1" id="Capa_1" xmlns="http://www.w3.org/2000/svg" xmlns:xlink="http://www.w3.org/1999/xlink" x="0px" y="0px"
	 width="650px" height="500px" viewBox="292.5 75 650 500" enable-background="new 292.5 75 650 500" xml:space="preserve">
<rect x="277.561" y="69.315" fill="#B22234" width="1000.767" height="526.719"/>
<path stroke="#FFFFFF" stroke-width="40" d="M277.561,130.09h1000.767 M1278.327,211.123H277.561 M277.561,292.156h1000.767
	 M1278.327,373.191H277.561 M277.561,454.225h1000.767 M1278.327,535.258H277.561"/>
<rect x="277.561" y="69.315" fill="#3C3B6E" width="400.308" height="283.618"/>
<g>
	<g>
		<g>
			<g id="s5">
				<g id="s4">
					<path id="s" fill="#FFFFFF" d="M310.92,81.47l9.525,29.317l-24.939-18.119h30.828l-24.939,18.119L310.92,81.47z"/>
					<g>
						<path id="s_1_" fill="#FFFFFF" d="M310.92,138.194l9.525,29.317l-24.939-18.119h30.828l-24.939,18.119L310.92,138.194z"/>
					</g>
					<g>
						<path id="s_2_" fill="#FFFFFF" d="M310.92,194.918l9.525,29.316l-24.939-18.118h30.828l-24.939,18.118L310.92,194.918z"/>
					</g>
					<g>
						<path id="s_3_" fill="#FFFFFF" d="M310.92,251.641l9.525,29.317l-24.939-18.118h30.828l-24.939,18.118L310.92,251.641z"/>
					</g>
				</g>
				<g>
					<path id="s_4_" fill="#FFFFFF" d="M310.92,308.365l9.525,29.316l-24.939-18.117h30.828l-24.939,18.117L310.92,308.365z"/>
				</g>
			</g>
			<g id="s9">
				<g id="s4_1_">
					<path id="s_5_" fill="#FFFFFF" d="M344.278,109.831l9.527,29.318l-24.94-18.119h30.827l-24.939,18.119L344.278,109.831z"/>
					<g>
						<path id="s_6_" fill="#FFFFFF" d="M344.278,166.555l9.527,29.317l-24.94-18.118h30.827l-24.939,18.118L344.278,166.555z"/>
					</g>
					<g>
						<path id="s_7_" fill="#FFFFFF" d="M344.278,223.28l9.527,29.316l-24.94-18.118h30.827l-24.939,18.118L344.278,223.28z"/>
					</g>
					<g>
						<path id="s_8_" fill="#FFFFFF" d="M344.278,280.003l9.527,29.316l-24.94-18.118h30.827l-24.939,18.118L344.278,280.003z"/>
					</g>
				</g>
			</g>
			<g>
				<g id="s18">
					<g id="s5_1_">
						<g id="s4_2_">
							<path id="s_9_" fill="#FFFFFF" d="M377.638,81.47l9.525,29.317l-24.939-18.119h30.826l-24.938,18.119L377.638,81.47z"/>
							<g>
								<path id="s_10_" fill="#FFFFFF" d="M377.638,138.194l9.525,29.317l-24.939-18.119h30.826l-24.938,18.119L377.638,138.194z"
									/>
							</g>
							<g>
								<path id="s_11_" fill="#FFFFFF" d="M377.638,194.918l9.525,29.316l-24.939-18.118h30.826l-24.938,18.118L377.638,194.918z"
									/>
							</g>
							<g>
								<path id="s_12_" fill="#FFFFFF" d="M377.638,251.641l9.525,29.317l-24.939-18.118h30.826l-24.938,18.118L377.638,251.641z"
									/>
							</g>
						</g>
						<g>
							<path id="s_13_" fill="#FFFFFF" d="M377.638,308.365l9.525,29.316l-24.939-18.117h30.826l-24.938,18.117L377.638,308.365z"/>
						</g>
					</g>
					<g id="s9_1_">
						<g id="s4_3_">
							<path id="s_14_" fill="#FFFFFF" d="M410.997,109.831l9.525,29.318l-24.939-18.119h30.826l-24.938,18.119L410.997,109.831z"/>
							<g>
								<path id="s_15_" fill="#FFFFFF" d="M410.997,166.555l9.525,29.317l-24.939-18.118h30.826l-24.938,18.118L410.997,166.555z"
									/>
							</g>
							<g>
								<path id="s_16_" fill="#FFFFFF" d="M410.997,223.28l9.525,29.316l-24.939-18.118h30.826l-24.938,18.118L410.997,223.28z"/>
							</g>
							<g>
								<path id="s_17_" fill="#FFFFFF" d="M410.997,280.003l9.525,29.316l-24.939-18.118h30.826l-24.938,18.118L410.997,280.003z"
									/>
							</g>
						</g>
					</g>
				</g>
				<g>
					<g>
						<g>
							<g id="s5_2_">
								<g id="s4_4_">
									<path id="s_18_" fill="#FFFFFF" d="M444.355,81.47l9.526,29.317l-24.939-18.119h30.827l-24.94,18.119L444.355,81.47z"/>
									<g>
										<path id="s_19_" fill="#FFFFFF" d="M444.355,138.194l9.526,29.317l-24.939-18.119h30.827l-24.94,18.119L444.355,138.194z"
											/>
									</g>
									<g>
										<path id="s_20_" fill="#FFFFFF" d="M444.355,194.918l9.526,29.316l-24.939-18.118h30.827l-24.94,18.118L444.355,194.918z"
											/>
									</g>
									<g>
										<path id="s_21_" fill="#FFFFFF" d="M444.355,251.641l9.526,29.317l-24.939-18.118h30.827l-24.94,18.118L444.355,251.641z"
											/>
									</g>
								</g>
								<g>
									<path id="s_22_" fill="#FFFFFF" d="M444.355,308.365l9.526,29.316l-24.939-18.117h30.827l-24.94,18.117L444.355,308.365z"
										/>
								</g>
							</g>
							<g id="s9_2_">
								<g id="s4_5_">
									<path id="s_23_" fill="#FFFFFF" d="M477.714,109.831l9.526,29.318l-24.939-18.119h30.827l-24.939,18.119L477.714,109.831z"
										/>
									<g>
										<path id="s_24_" fill="#FFFFFF" d="M477.714,166.555l9.526,29.317l-24.939-18.118h30.827l-24.939,18.118L477.714,166.555z
											"/>
									</g>
									<g>
										<path id="s_25_" fill="#FFFFFF" d="M477.714,223.28l9.526,29.316l-24.939-18.118h30.827l-24.939,18.118L477.714,223.28z"
											/>
									</g>
									<g>
										<path id="s_26_" fill="#FFFFFF" d="M477.714,280.003l9.526,29.316l-24.939-18.118h30.827l-24.939,18.118L477.714,280.003z
											"/>
									</g>
								</g>
							</g>
							<g>
								<g id="s18_1_">
									<g id="s5_3_">
										<g id="s4_6_">
											<path id="s_27_" fill="#FFFFFF" d="M511.072,81.47l9.527,29.317l-24.94-18.119h30.828l-24.94,18.119L511.072,81.47z"/>
											<g>
												<path id="s_28_" fill="#FFFFFF" d="M511.072,138.194l9.527,29.317l-24.94-18.119h30.828l-24.94,18.119L511.072,138.194z
													"/>
											</g>
											<g>
												<path id="s_29_" fill="#FFFFFF" d="M511.072,194.918l9.527,29.316l-24.94-18.118h30.828l-24.94,18.118L511.072,194.918z
													"/>
											</g>
											<g>
												<path id="s_30_" fill="#FFFFFF" d="M511.072,251.641l9.527,29.317l-24.94-18.118h30.828l-24.94,18.118L511.072,251.641z
													"/>
											</g>
										</g>
										<g>
											<path id="s_31_" fill="#FFFFFF" d="M511.072,308.365l9.527,29.316l-24.94-18.117h30.828l-24.94,18.117L511.072,308.365z"
												/>
										</g>
									</g>
									<g id="s9_3_">
										<g id="s4_7_">
											<path id="s_32_" fill="#FFFFFF" d="M544.432,109.831l9.527,29.318l-24.939-18.119h30.826l-24.939,18.119L544.432,109.831
												z"/>
											<g>
												<path id="s_33_" fill="#FFFFFF" d="M544.432,166.555l9.527,29.317l-24.939-18.118h30.826l-24.939,18.118
													L544.432,166.555z"/>
											</g>
											<g>
												<path id="s_34_" fill="#FFFFFF" d="M544.432,223.28l9.527,29.316l-24.939-18.118h30.826l-24.939,18.118L544.432,223.28z
													"/>
											</g>
											<g>
												<path id="s_35_" fill="#FFFFFF" d="M544.432,280.003l9.527,29.316l-24.939-18.118h30.826l-24.939,18.118
													L544.432,280.003z"/>
											</g>
										</g>
									</g>
								</g>
								<g>
									<g>
										<g id="s5_4_">
											<g id="s4_8_">
												<path id="s_36_" fill="#FFFFFF" d="M577.792,81.47l9.524,29.317l-24.938-18.119h30.826l-24.939,18.119L577.792,81.47z"
													/>
												<g>
													<path id="s_37_" fill="#FFFFFF" d="M577.792,138.194l9.524,29.317l-24.938-18.119h30.826l-24.939,18.119
														L577.792,138.194z"/>
												</g>
												<g>
													<path id="s_38_" fill="#FFFFFF" d="M577.792,194.918l9.524,29.316l-24.938-18.118h30.826l-24.939,18.118
														L577.792,194.918z"/>
												</g>
												<g>
													<path id="s_39_" fill="#FFFFFF" d="M577.792,251.641l9.524,29.317l-24.938-18.118h30.826l-24.939,18.118
														L577.792,251.641z"/>
												</g>
											</g>
											<g>
												<path id="s_40_" fill="#FFFFFF" d="M577.792,308.365l9.524,29.316l-24.938-18.117h30.826l-24.939,18.117
													L577.792,308.365z"/>
											</g>
										</g>
										<g id="s9_4_">
											<g id="s4_9_">
												<path id="s_41_" fill="#FFFFFF" d="M611.149,109.831l9.526,29.318l-24.939-18.119h30.826l-24.938,18.119
													L611.149,109.831z"/>
												<g>
													<path id="s_42_" fill="#FFFFFF" d="M611.149,166.555l9.526,29.317l-24.939-18.118h30.826l-24.938,18.118
														L611.149,166.555z"/>
												</g>
												<g>
													<path id="s_43_" fill="#FFFFFF" d="M611.149,223.28l9.526,29.316l-24.939-18.118h30.826l-24.938,18.118L611.149,223.28
														z"/>
												</g>
												<g>
													<path id="s_44_" fill="#FFFFFF" d="M611.149,280.003l9.526,29.316l-24.939-18.118h30.826l-24.938,18.118
														L611.149,280.003z"/>
												</g>
											</g>
										</g>
										<g>
											<g id="s5_5_">
												<g id="s4_10_">
													<path id="s_45_" fill="#FFFFFF" d="M644.509,81.47l9.526,29.317l-24.94-18.119h30.828l-24.938,18.119L644.509,81.47z"
														/>
													<g>
														<path id="s_46_" fill="#FFFFFF" d="M644.509,138.194l9.526,29.317l-24.94-18.119h30.828l-24.938,18.119
															L644.509,138.194z"/>
													</g>
													<g>
														<path id="s_47_" fill="#FFFFFF" d="M644.509,194.918l9.526,29.316l-24.94-18.118h30.828l-24.938,18.118
															L644.509,194.918z"/>
													</g>
													<g>
														<path id="s_48_" fill="#FFFFFF" d="M644.509,251.641l9.526,29.317l-24.94-18.118h30.828l-24.938,18.118
															L644.509,251.641z"/>
													</g>
												</g>
												<g>
													<path id="s_49_" fill="#FFFFFF" d="M644.509,308.365l9.526,29.316l-24.94-18.117h30.828l-24.938,18.117
														L644.509,308.365z"/>
												</g>
											</g>
										</g>
									</g>
								</g>
							</g>
						</g>
					</g>
				</g>
			</g>
		</g>
	</g>
</g>
</svg>
