<?xml version="1.0" encoding="utf-8"?>
<!-- Generator: Adobe Illustrator 16.0.0, SVG Export Plug-In . SVG Version: 6.00 Build 0)  -->
<!DOCTYPE svg PUBLIC "-//W3C//DTD SVG 1.1//EN" "http://www.w3.org/Graphics/SVG/1.1/DTD/svg11.dtd">
<svg version="1.1" id="Capa_1" xmlns="http://www.w3.org/2000/svg" xmlns:xlink="http://www.w3.org/1999/xlink" x="0px" y="0px"
	 width="650px" height="500px" viewBox="275 50 650 500" enable-background="new 275 50 650 500" xml:space="preserve">
<rect x="64.959" y="22.5" fill-rule="evenodd" clip-rule="evenodd" fill="#FEFDFD" width="1055.082" height="544"/>
<g>
	<path fill-rule="evenodd" clip-rule="evenodd" fill="#DD0015" d="M72.322,248.156c154.333,0,308.666-0.017,463,0.096
		c3.978,0.002,4.87-1.031,4.862-4.913c-0.126-66.122-0.052-132.244-0.186-198.366c-0.008-3.957,0.998-4.907,4.907-4.885
		c31.473,0.169,62.947,0.185,94.418-0.014c4.115-0.027,4.805,1.237,4.798,4.994c-0.111,66.122-0.037,132.245-0.186,198.366
		c-0.009,4.087,1.195,4.807,4.971,4.804c152.601-0.094,305.201-0.064,457.802-0.174c3.999-0.003,5.254,0.671,5.224,5.013
		c-0.224,31.471-0.19,62.945-0.027,94.418c0.02,3.729-0.767,4.711-4.64,4.708c-152.601-0.117-305.202-0.077-457.803-0.209
		c-4.521-0.004-5.539,1.135-5.529,5.575c0.156,65.979,0.064,131.956,0.216,197.934c0.01,3.98-1.144,4.601-4.765,4.584
		c-31.472-0.146-62.945-0.149-94.418-0.001c-3.765,0.019-4.987-0.7-4.978-4.801c0.149-66.121,0.07-132.243,0.196-198.366
		c0.008-3.883-0.889-4.913-4.863-4.91c-154.334,0.112-308.666,0.097-462.999,0.097C72.322,317.456,72.322,282.806,72.322,248.156z"
		/>
	<path fill-rule="evenodd" clip-rule="evenodd" fill="#002269" d="M72.322,98.297c76.306,38.154,152.612,76.309,228.918,114.463
		c-0.053,0.249-0.105,0.499-0.159,0.747c-76.254,0-152.507,0-228.76,0C72.322,175.104,72.322,136.699,72.322,98.297z"/>
	<path fill-rule="evenodd" clip-rule="evenodd" fill="#002269" d="M72.322,386.755c76.208,0,152.415,0,228.623,0
		c0.101,0.232,0.201,0.467,0.302,0.698c-76.308,38.171-152.616,76.341-228.924,114.512
		C72.322,463.563,72.322,425.157,72.322,386.755z"/>
	<path fill-rule="evenodd" clip-rule="evenodd" fill="#DD0015" d="M72.322,40.258c114.989,57.495,229.977,114.991,344.965,172.486
		c-0.023,0.254-0.047,0.508-0.07,0.761c-1.345,0-2.69,0-4.035,0c-22.372,0-44.744-0.049-67.114,0.054
		c-3.279,0.014-6.139-0.691-9.059-2.153c-86.903-43.514-173.833-86.969-260.764-130.423c-1.279-0.64-2.614-1.166-3.923-1.745
		C72.322,66.245,72.322,53.252,72.322,40.258z"/>
	<path fill-rule="evenodd" clip-rule="evenodd" fill="#002269" d="M190.205,40.175c1.294,0,2.588,0,3.884,0
		c102.194,0,204.387,0.025,306.582-0.095c3.971-0.004,4.875,1.023,4.864,4.91c-0.139,49.653-0.091,99.308-0.091,148.961
		c0,1.401,0,2.802,0,4.843C399.932,146.021,294.929,93.502,189.927,40.983C190.019,40.714,190.112,40.445,190.205,40.175z"/>
	<path fill-rule="evenodd" clip-rule="evenodd" fill="#002269" d="M994.495,40.861C889.243,93.492,784.249,145.995,678.69,198.78
		c0-1.73,0-2.824,0-3.919c0-50.228,0.029-100.456-0.068-150.683c-0.006-3.09,0.539-4.092,3.921-4.088
		c102.766,0.105,205.53,0.084,308.295,0.109C991.901,40.198,993.067,39.788,994.495,40.861z"/>
	<path fill-rule="evenodd" clip-rule="evenodd" fill="#002269" d="M188.853,559.823c106.141-53.077,211.122-105.572,316.59-158.312
		c0,1.575,0,2.543,0,3.513c0,50.364-0.02,100.728,0.051,151.093c0.004,2.726-0.226,3.976-3.57,3.972
		c-103.471-0.104-206.94-0.086-310.41-0.09C191.083,559.998,190.653,559.945,188.853,559.823z"/>
	<path fill-rule="evenodd" clip-rule="evenodd" fill="#002269" d="M993.959,560.003c-1.389,0-2.777,0-4.167,0
		c-102.169,0-204.338-0.022-306.507,0.091c-3.736,0.003-4.707-0.779-4.695-4.635c0.152-49.785,0.101-99.572,0.101-149.356
		c0-1.295,0-2.588,0-4.602c105.43,52.725,210.455,105.247,315.48,157.77C994.101,559.515,994.03,559.759,993.959,560.003z"/>
	<path fill-rule="evenodd" clip-rule="evenodd" fill="#DD0015" d="M689.486,212.68c31.668-15.848,63.331-31.707,95.006-47.54
		c82.299-41.136,164.604-82.259,246.899-123.398c1.676-0.838,3.264-1.604,5.268-1.599c24.105,0.064,48.21,0.042,72.314,0.051
		c0.403,0,0.808,0.109,1.397,0.194c-0.809,1.476-2.305,1.735-3.475,2.321c-112.58,56.327-225.181,112.613-337.76,168.943
		c-2.649,1.325-5.281,1.911-8.25,1.899c-22.372-0.084-44.745-0.046-67.118-0.046c-1.389,0-2.779,0-4.169,0
		C689.563,213.23,689.524,212.955,689.486,212.68z"/>
	<path fill-rule="evenodd" clip-rule="evenodd" fill="#DD0015" d="M73.87,559.254c19.019-9.528,38.031-19.069,57.058-28.583
		c94.544-47.271,189.095-94.527,283.622-141.832c2.906-1.455,5.778-2.155,9.059-2.141c23.631,0.107,47.264,0.058,71.262,0.058
		c-0.971,1.646-2.439,1.926-3.61,2.511c-112.514,56.289-225.043,112.548-337.555,168.844c-2.641,1.32-5.26,1.955-8.245,1.943
		c-23.807-0.092-47.613-0.052-71.419-0.052C73.984,559.753,73.927,559.503,73.87,559.254z"/>
	<path fill-rule="evenodd" clip-rule="evenodd" fill="#002269" d="M1111.813,98.291c0,1.754,0,2.869,0,3.984
		c0,35.782-0.027,71.566,0.053,107.348c0.006,2.732-0.238,3.973-3.576,3.967c-74.739-0.111-149.48-0.087-224.22-0.092
		c-0.286,0-0.571-0.06-2.145-0.237C959.037,174.697,1035.178,136.617,1111.813,98.291z"/>
	<path fill-rule="evenodd" clip-rule="evenodd" fill="#002269" d="M1111.813,501.908c-76.64-38.3-152.781-76.351-228.923-114.401
		c0.049-0.25,0.097-0.501,0.145-0.752c1.354,0,2.708,0,4.062,0c73.313,0,146.627,0.034,219.939-0.095
		c3.946-0.008,4.89,0.984,4.872,4.891c-0.163,35.212-0.095,70.427-0.095,105.64C1111.813,498.582,1111.813,499.973,1111.813,501.908
		z"/>
	<path fill-rule="evenodd" clip-rule="evenodd" fill="#DD0015" d="M766.989,386.756c5.417,0,10.834,0,16.25,0
		c18.765,0,37.528,0.021,56.291-0.028c2.222-0.006,4.179,0.442,6.187,1.447c87.68,43.884,175.382,87.723,263.087,131.555
		c1.693,0.846,3.115,1.469,3.08,3.967c-0.163,11.828-0.072,23.661-0.072,36.301c-115.29-57.644-230.149-115.072-345.008-172.5
		C766.865,387.25,766.928,387.003,766.989,386.756z"/>
</g>
</svg>
