<?xml version="1.0" encoding="utf-8"?>
<!-- Generator: Adobe Illustrator 16.0.0, SVG Export Plug-In . SVG Version: 6.00 Build 0)  -->
<!DOCTYPE svg PUBLIC "-//W3C//DTD SVG 1.1//EN" "http://www.w3.org/Graphics/SVG/1.1/DTD/svg11.dtd">
<svg version="1.1" id="Capa_1" xmlns="http://www.w3.org/2000/svg" xmlns:xlink="http://www.w3.org/1999/xlink" x="0px" y="0px"
	 width="650px" height="500px" viewBox="80 20 650 500" enable-background="new 80 20 650 500" xml:space="preserve">
<desc>European flag</desc>
<g>
	<rect x="-18.149" y="-18.457" fill="#003399" width="867.051" height="578.035"/>
	<polyline fill="#FFCC00" points="415.377,45.77 405.453,76.311 420.724,81.273 415.377,45.77 	"/>
	<polyline fill="#FFCC00" points="415.377,45.77 425.3,76.311 410.028,81.273 415.377,45.77 	"/>
	<polyline fill="#FFCC00" points="445.918,67.96 413.805,67.96 413.805,84.016 445.918,67.96 	"/>
	<polyline fill="#FFCC00" points="445.918,67.96 419.938,86.836 410.5,73.844 445.918,67.96 	"/>
	<polyline fill="#FFCC00" points="434.251,103.863 424.327,73.321 409.058,78.283 434.251,103.863 	"/>
	<polyline fill="#FFCC00" points="434.251,103.863 408.271,84.987 417.709,71.998 434.251,103.863 	"/>
	<polyline fill="#FFCC00" points="384.834,67.96 416.948,67.96 416.948,84.016 384.834,67.96 	"/>
	<polyline fill="#FFCC00" points="384.834,67.96 410.814,86.836 420.252,73.844 384.834,67.96 	"/>
	<polyline fill="#FFCC00" points="396.5,103.863 406.424,73.321 421.694,78.283 396.5,103.863 	"/>
	<polyline fill="#FFCC00" points="396.5,103.863 422.48,84.987 413.042,71.998 396.5,103.863 	"/>
	<polyline fill="#FFCC00" points="415.377,431.126 405.453,461.667 420.724,466.631 415.377,431.126 	"/>
	<polyline fill="#FFCC00" points="415.377,431.126 425.3,461.667 410.028,466.631 415.377,431.126 	"/>
	<polyline fill="#FFCC00" points="445.918,453.316 413.805,453.316 413.805,469.373 445.918,453.316 	"/>
	<polyline fill="#FFCC00" points="445.918,453.316 419.938,472.191 410.5,459.199 445.918,453.316 	"/>
	<polyline fill="#FFCC00" points="434.251,489.218 424.327,458.677 409.058,463.641 434.251,489.218 	"/>
	<polyline fill="#FFCC00" points="434.251,489.218 408.271,470.344 417.709,457.357 434.251,489.218 	"/>
	<polyline fill="#FFCC00" points="384.834,453.316 416.948,453.316 416.948,469.373 384.834,453.316 	"/>
	<polyline fill="#FFCC00" points="384.834,453.316 410.814,472.191 420.252,459.199 384.834,453.316 	"/>
	<polyline fill="#FFCC00" points="396.5,489.218 406.424,458.677 421.694,463.641 396.5,489.218 	"/>
	<polyline fill="#FFCC00" points="396.5,489.218 422.48,470.344 413.042,457.357 396.5,489.218 	"/>
	<polyline fill="#FFCC00" points="222.698,238.448 212.775,268.989 228.045,273.951 222.698,238.448 	"/>
	<polyline fill="#FFCC00" points="222.698,238.448 232.622,268.989 217.351,273.951 222.698,238.448 	"/>
	<polyline fill="#FFCC00" points="253.239,260.637 221.126,260.637 221.126,276.694 253.239,260.637 	"/>
	<polyline fill="#FFCC00" points="253.239,260.637 227.258,279.513 217.82,266.522 253.239,260.637 	"/>
	<polyline fill="#FFCC00" points="241.573,296.541 231.65,265.999 216.379,270.961 241.573,296.541 	"/>
	<polyline fill="#FFCC00" points="241.573,296.541 215.594,277.665 225.031,264.676 241.573,296.541 	"/>
	<polyline fill="#FFCC00" points="192.156,260.637 224.269,260.637 224.269,276.694 192.156,260.637 	"/>
	<polyline fill="#FFCC00" points="192.156,260.637 218.137,279.513 227.574,266.522 192.156,260.637 	"/>
	<polyline fill="#FFCC00" points="203.823,296.541 213.747,265.999 229.017,270.961 203.823,296.541 	"/>
	<polyline fill="#FFCC00" points="203.823,296.541 229.803,277.665 220.365,264.676 203.823,296.541 	"/>
	<polyline fill="#FFCC00" points="300.162,129.677 326.141,110.801 316.704,97.812 300.162,129.677 	"/>
	<polyline fill="#FFCC00" points="300.162,129.677 310.086,99.135 325.357,104.097 300.162,129.677 	"/>
	<polyline fill="#FFCC00" points="288.496,93.774 314.476,112.649 323.914,99.658 288.496,93.774 	"/>
	<polyline fill="#FFCC00" points="288.496,93.774 320.61,93.774 320.61,109.83 288.496,93.774 	"/>
	<polyline fill="#FFCC00" points="319.037,71.584 309.113,102.125 324.384,107.087 319.037,71.584 	"/>
	<polyline fill="#FFCC00" points="319.037,71.584 328.959,102.125 313.689,107.087 319.037,71.584 	"/>
	<polyline fill="#FFCC00" points="337.912,129.677 311.931,110.801 321.369,97.812 337.912,129.677 	"/>
	<polyline fill="#FFCC00" points="337.912,129.677 327.988,99.135 312.718,104.097 337.912,129.677 	"/>
	<polyline fill="#FFCC00" points="349.578,93.774 323.597,112.649 314.16,99.658 349.578,93.774 	"/>
	<polyline fill="#FFCC00" points="349.578,93.774 317.464,93.774 317.464,109.83 349.578,93.774 	"/>
	<polyline fill="#FFCC00" points="267.387,200.201 257.464,169.659 242.193,174.621 267.387,200.201 	"/>
	<polyline fill="#FFCC00" points="267.387,200.201 241.408,181.325 250.845,168.336 267.387,200.201 	"/>
	<polyline fill="#FFCC00" points="229.636,200.201 255.616,181.325 246.179,168.336 229.636,200.201 	"/>
	<polyline fill="#FFCC00" points="229.636,200.201 239.561,169.659 254.831,174.621 229.636,200.201 	"/>
	<polyline fill="#FFCC00" points="217.97,164.299 243.95,183.175 253.388,170.184 217.97,164.299 	"/>
	<polyline fill="#FFCC00" points="217.97,164.299 250.084,164.299 250.084,180.356 217.97,164.299 	"/>
	<polyline fill="#FFCC00" points="279.053,164.299 253.074,183.175 243.636,170.184 279.053,164.299 	"/>
	<polyline fill="#FFCC00" points="279.053,164.299 246.94,164.299 246.94,180.356 279.053,164.299 	"/>
	<polyline fill="#FFCC00" points="248.512,142.108 258.436,172.649 243.165,177.611 248.512,142.108 	"/>
	<polyline fill="#FFCC00" points="248.512,142.108 238.589,172.649 253.859,177.611 248.512,142.108 	"/>
	<polyline fill="#FFCC00" points="279.053,356.975 246.94,356.975 246.94,373.031 279.053,356.975 	"/>
	<polyline fill="#FFCC00" points="279.053,356.975 253.074,375.851 243.636,362.861 279.053,356.975 	"/>
	<polyline fill="#FFCC00" points="267.387,392.878 257.464,362.337 242.193,367.299 267.387,392.878 	"/>
	<polyline fill="#FFCC00" points="267.387,392.878 241.408,374.004 250.845,361.014 267.387,392.878 	"/>
	<polyline fill="#FFCC00" points="229.636,392.878 255.616,374.004 246.179,361.014 229.636,392.878 	"/>
	<polyline fill="#FFCC00" points="229.636,392.878 239.561,362.337 254.831,367.299 229.636,392.878 	"/>
	<polyline fill="#FFCC00" points="248.512,334.785 258.436,365.327 243.165,370.288 248.512,334.785 	"/>
	<polyline fill="#FFCC00" points="248.512,334.785 238.589,365.327 253.859,370.288 248.512,334.785 	"/>
	<polyline fill="#FFCC00" points="217.97,356.975 250.084,356.975 250.084,373.031 217.97,356.975 	"/>
	<polyline fill="#FFCC00" points="217.97,356.975 243.95,375.851 253.388,362.861 217.97,356.975 	"/>
	<polyline fill="#FFCC00" points="349.578,427.502 317.464,427.502 317.464,443.559 349.578,427.502 	"/>
	<polyline fill="#FFCC00" points="349.578,427.502 323.597,446.376 314.16,433.386 349.578,427.502 	"/>
	<polyline fill="#FFCC00" points="337.912,463.407 327.988,432.863 312.718,437.826 337.912,463.407 	"/>
	<polyline fill="#FFCC00" points="337.912,463.407 311.931,444.53 321.369,431.542 337.912,463.407 	"/>
	<polyline fill="#FFCC00" points="300.162,463.407 326.141,444.53 316.704,431.542 300.162,463.407 	"/>
	<polyline fill="#FFCC00" points="300.162,463.407 310.086,432.863 325.357,437.826 300.162,463.407 	"/>
	<polyline fill="#FFCC00" points="319.037,405.311 328.959,435.854 313.689,440.818 319.037,405.311 	"/>
	<polyline fill="#FFCC00" points="319.037,405.311 309.113,435.854 324.384,440.818 319.037,405.311 	"/>
	<polyline fill="#FFCC00" points="288.496,427.502 320.61,427.502 320.61,443.559 288.496,427.502 	"/>
	<polyline fill="#FFCC00" points="288.496,427.502 314.476,446.376 323.914,433.386 288.496,427.502 	"/>
	<polyline fill="#FFCC00" points="608.053,238.448 617.978,268.989 602.707,273.951 608.053,238.448 	"/>
	<polyline fill="#FFCC00" points="608.053,238.448 598.131,268.989 613.401,273.951 608.053,238.448 	"/>
	<polyline fill="#FFCC00" points="577.512,260.637 609.626,260.637 609.626,276.694 577.512,260.637 	"/>
	<polyline fill="#FFCC00" points="577.512,260.637 603.491,279.513 612.93,266.522 577.512,260.637 	"/>
	<polyline fill="#FFCC00" points="589.178,296.541 599.102,265.999 614.372,270.961 589.178,296.541 	"/>
	<polyline fill="#FFCC00" points="589.178,296.541 615.158,277.665 605.721,264.676 589.178,296.541 	"/>
	<polyline fill="#FFCC00" points="638.595,260.637 606.483,260.637 606.483,276.694 638.595,260.637 	"/>
	<polyline fill="#FFCC00" points="638.595,260.637 612.615,279.513 603.178,266.522 638.595,260.637 	"/>
	<polyline fill="#FFCC00" points="626.929,296.541 617.005,265.999 601.734,270.961 626.929,296.541 	"/>
	<polyline fill="#FFCC00" points="626.929,296.541 600.949,277.665 610.387,264.676 626.929,296.541 	"/>
	<polyline fill="#FFCC00" points="530.589,129.677 504.611,110.801 514.047,97.812 530.589,129.677 	"/>
	<polyline fill="#FFCC00" points="530.589,129.677 520.665,99.135 505.395,104.097 530.589,129.677 	"/>
	<polyline fill="#FFCC00" points="542.256,93.774 516.275,112.649 506.838,99.658 542.256,93.774 	"/>
	<polyline fill="#FFCC00" points="542.256,93.774 510.143,93.774 510.143,109.83 542.256,93.774 	"/>
	<polyline fill="#FFCC00" points="511.715,71.584 521.639,102.125 506.368,107.087 511.715,71.584 	"/>
	<polyline fill="#FFCC00" points="511.715,71.584 501.793,102.125 517.063,107.087 511.715,71.584 	"/>
	<polyline fill="#FFCC00" points="492.839,129.677 518.818,110.801 509.381,97.812 492.839,129.677 	"/>
	<polyline fill="#FFCC00" points="492.839,129.677 502.762,99.135 518.032,104.097 492.839,129.677 	"/>
	<polyline fill="#FFCC00" points="481.172,93.774 507.151,112.649 516.591,99.658 481.172,93.774 	"/>
	<polyline fill="#FFCC00" points="481.172,93.774 513.286,93.774 513.286,109.83 481.172,93.774 	"/>
	<polyline fill="#FFCC00" points="563.365,200.201 573.287,169.659 588.558,174.621 563.365,200.201 	"/>
	<polyline fill="#FFCC00" points="563.365,200.201 589.345,181.325 579.907,168.336 563.365,200.201 	"/>
	<polyline fill="#FFCC00" points="601.115,200.201 575.136,181.325 584.573,168.336 601.115,200.201 	"/>
	<polyline fill="#FFCC00" points="601.115,200.201 591.191,169.659 575.921,174.621 601.115,200.201 	"/>
	<polyline fill="#FFCC00" points="612.782,164.299 586.801,183.175 577.364,170.184 612.782,164.299 	"/>
	<polyline fill="#FFCC00" points="612.782,164.299 580.668,164.299 580.668,180.356 612.782,164.299 	"/>
	<polyline fill="#FFCC00" points="551.698,164.299 577.678,183.175 587.116,170.184 551.698,164.299 	"/>
	<polyline fill="#FFCC00" points="551.698,164.299 583.812,164.299 583.812,180.356 551.698,164.299 	"/>
	<polyline fill="#FFCC00" points="582.239,142.108 572.316,172.649 587.587,177.611 582.239,142.108 	"/>
	<polyline fill="#FFCC00" points="582.239,142.108 592.163,172.649 576.893,177.611 582.239,142.108 	"/>
	<polyline fill="#FFCC00" points="551.698,356.975 583.812,356.975 583.812,373.031 551.698,356.975 	"/>
	<polyline fill="#FFCC00" points="551.698,356.975 577.678,375.851 587.116,362.861 551.698,356.975 	"/>
	<polyline fill="#FFCC00" points="563.365,392.878 573.287,362.337 588.558,367.299 563.365,392.878 	"/>
	<polyline fill="#FFCC00" points="563.365,392.878 589.345,374.004 579.907,361.014 563.365,392.878 	"/>
	<polyline fill="#FFCC00" points="601.115,392.878 575.136,374.004 584.573,361.014 601.115,392.878 	"/>
	<polyline fill="#FFCC00" points="601.115,392.878 591.191,362.337 575.921,367.299 601.115,392.878 	"/>
	<polyline fill="#FFCC00" points="582.239,334.785 572.316,365.327 587.587,370.288 582.239,334.785 	"/>
	<polyline fill="#FFCC00" points="582.239,334.785 592.163,365.327 576.893,370.288 582.239,334.785 	"/>
	<polyline fill="#FFCC00" points="612.782,356.975 580.668,356.975 580.668,373.031 612.782,356.975 	"/>
	<polyline fill="#FFCC00" points="612.782,356.975 586.801,375.851 577.364,362.861 612.782,356.975 	"/>
	<polyline fill="#FFCC00" points="481.172,427.502 513.286,427.502 513.286,443.559 481.172,427.502 	"/>
	<polyline fill="#FFCC00" points="481.172,427.502 507.151,446.376 516.591,433.386 481.172,427.502 	"/>
	<polyline fill="#FFCC00" points="492.839,463.407 502.762,432.863 518.032,437.826 492.839,463.407 	"/>
	<polyline fill="#FFCC00" points="492.839,463.407 518.818,444.53 509.381,431.542 492.839,463.407 	"/>
	<polyline fill="#FFCC00" points="530.589,463.407 504.611,444.53 514.047,431.542 530.589,463.407 	"/>
	<polyline fill="#FFCC00" points="530.589,463.407 520.665,432.863 505.395,437.826 530.589,463.407 	"/>
	<polyline fill="#FFCC00" points="511.715,405.311 501.793,435.854 517.063,440.818 511.715,405.311 	"/>
	<polyline fill="#FFCC00" points="511.715,405.311 521.639,435.854 506.368,440.818 511.715,405.311 	"/>
	<polyline fill="#FFCC00" points="542.256,427.502 510.143,427.502 510.143,443.559 542.256,427.502 	"/>
	<polyline fill="#FFCC00" points="542.256,427.502 516.275,446.376 506.838,433.386 542.256,427.502 	"/>
</g>
</svg>
